<svg xmlns="http://www.w3.org/2000/svg" xmlns:xlink="http://www.w3.org/1999/xlink" viewBox="0 0 1779.26 387.72"><defs><style>.cls-1{fill:url(#무제_그라디언트_13);}.cls-2{fill:url(#무제_그라디언트_15);}.cls-3{fill:#fff;}.cls-4{fill:#d2fbf0;}.cls-5{fill:#a5f6e2;}.cls-6{fill:#77f2d3;}.cls-7{fill:#4aedc5;}.cls-8{fill:#1de9b6;}.cls-9{fill:url(#무제_그라디언트_15-2);}.cls-10{fill:url(#무제_그라디언트_13-2);}</style><linearGradient id="무제_그라디언트_13" x1="506.58" y1="381.5" x2="506.58" y2="126.74" gradientUnits="userSpaceOnUse"><stop offset="0" stop-color="#2196f3"/><stop offset="1" stop-color="#7c4dff"/></linearGradient><linearGradient id="무제_그라디언트_15" x1="469.75" y1="387.72" x2="469.75" y2="90.5" gradientUnits="userSpaceOnUse"><stop offset="0" stop-color="#2196f3"/><stop offset="1" stop-color="#1de9b6"/></linearGradient><linearGradient id="무제_그라디언트_15-2" x1="0" y1="191.5" x2="342.8" y2="191.5" xlink:href="#무제_그라디언트_15"/><linearGradient id="무제_그라디언트_13-2" x1="633.96" y1="192.03" x2="1779.26" y2="192.03" xlink:href="#무제_그라디언트_13"/></defs><title>cloudus</title><g id="Layer_2" data-name="Layer 2"><g id="typography"><circle class="cls-1" cx="506.58" cy="254.12" r="127.38"/><path class="cls-2" d="M446.53,344.19a106.16,106.16,0,0,1,107.93-176,10.61,10.61,0,0,0,10.63-2.6L589,141.72a10.62,10.62,0,0,0-.43-15.23,148.61,148.61,0,1,0,8,217.81A106.15,106.15,0,0,1,446.53,344.19Z"/><path id="_0" data-name="0" class="cls-3" d="M446.53,344.19a106.16,106.16,0,0,1,107.93-176,10.61,10.61,0,0,0,10.63-2.6l15.3-15.3A127.38,127.38,0,1,0,594.2,346.57c.79-.75,1.57-1.5,2.34-2.27A106.15,106.15,0,0,1,446.53,344.19Z"/><path id="_1" data-name="1" class="cls-4" d="M413.25,167.44c-.35.38-.71.76-1.05,1.14s-.93,1-1.38,1.56c-.22.25-.44.49-.65.74-.53.61-1.06,1.23-1.58,1.86l-.38.46c-.58.69-1.14,1.4-1.7,2.11l-.19.23c-.6.77-1.2,1.55-1.78,2.33l-.05.06a127.2,127.2,0,0,0-9.89,15.43l-.05.1c-.46.84-.9,1.68-1.34,2.54-.06.1-.11.21-.17.32-.39.77-.77,1.55-1.15,2.32l-.3.63c-.33.68-.64,1.36-1,2l-.43,1c-.26.57-.51,1.14-.76,1.72l-.57,1.36c-.18.45-.37.9-.55,1.36l-.69,1.74c-.12.34-.25.67-.38,1-.26.7-.52,1.41-.77,2.12-.07.21-.15.43-.23.65-.28.82-.56,1.64-.82,2.46l-.12.35c-.29.91-.57,1.82-.84,2.74l0,.1a127.21,127.21,0,0,0-3.92,17.91v.08c-.14,1-.27,1.93-.39,2.9l0,.3c-.11.9-.2,1.8-.29,2.7,0,.19,0,.39-.05.59q-.12,1.22-.21,2.43l-.06,1c0,.69-.09,1.39-.12,2.08,0,.51,0,1-.06,1.55s-.05,1-.06,1.55c0,1.05,0,2.1,0,3.15h0c0,1,0,2.09,0,3.13,0,.57,0,1.14.06,1.71s0,.91.05,1.36c0,.78.09,1.56.14,2.34,0,.23,0,.47.05.7.06.92.14,1.84.23,2.75a2.11,2.11,0,0,0,0,.26,127.78,127.78,0,0,0,5.53,26.84l.06.2c.28.84.56,1.68.85,2.52l.18.52c.26.73.52,1.45.79,2.17.11.29.21.58.32.86.23.6.46,1.18.7,1.77.16.42.32.83.49,1.24l.57,1.36.69,1.61.42.93c.3.67.6,1.33.92,2,.07.17.15.33.23.49.38.8.77,1.59,1.16,2.38l0,0A127.87,127.87,0,0,0,409,336l.39.47c.45.53.91,1.06,1.38,1.58.24.28.49.57.74.84.39.45.79.88,1.19,1.32l1,1.06c.36.39.72.77,1.09,1.15l1.14,1.17L417,344.7l1.12,1.09,1.17,1.12,1,.93,1.35,1.23.77.68c.55.48,1.09,1,1.65,1.43l.39.33a127.26,127.26,0,0,0,32.5,20l.71.31,1.5.6,1.44.58.77.29a127.57,127.57,0,0,0,31.39,7.5l.25,0,2.28.22.89.08,1.85.13,1.35.08,1.54.08,1.66.06,1,0a106.16,106.16,0,0,1-30-207,106.47,106.47,0,0,1,80.91-6.26,10.61,10.61,0,0,0,10.63-2.6l15.29-15.29c-1.39-1-2.79-2-4.22-2.89l-.1-.06c-.69-.45-1.38-.89-2.08-1.32a2.9,2.9,0,0,0-.29-.19l-1.91-1.16-.5-.3-1.73-1-.74-.42-1.5-.83-1-.55-1.23-.64c-.45-.23-.89-.47-1.34-.69l-.93-.46-1.69-.82-.58-.27c-.7-.33-1.39-.65-2.09-1l-.2-.08a127.37,127.37,0,0,0-50.45-10.9h-3.44l-2,0-.8,0c-.74,0-1.49.06-2.23.11h-.13A128.07,128.07,0,0,0,466.94,133l-.07,0q-1.19.39-2.37.81L464,134c-.7.24-1.38.49-2.07.75l-.84.32-1.75.68-1.33.54-1.27.53c-.84.36-1.68.72-2.52,1.1l-.09,0a127.63,127.63,0,0,0-30.9,19.78l0,0c-.72.62-1.42,1.25-2.12,1.88l-.19.16-1.93,1.8-.3.29c-.73.69-1.46,1.4-2.17,2.11s-1.48,1.5-2.2,2.26C414,166.68,413.61,167.06,413.25,167.44Z"/><path id="_2" data-name="2" class="cls-5" d="M416.51,194.08a106,106,0,0,1,90.09-30,106.5,106.5,0,0,1,47.86,4.14,10.61,10.61,0,0,0,10.63-2.6l15.3-15.3h0q-1.17-.82-2.34-1.62l0,0a126.29,126.29,0,0,0-22.22-12l0,0-2.53-1-.06,0a127.36,127.36,0,0,0-21-6.22l-.22,0-2.44-.47-.35-.06-2.4-.41-.36,0q-1.21-.2-2.43-.36l-.26,0a128.66,128.66,0,0,0-13.42-1.1h-.07l-2.34,0h-3.42l-2,0-.82,0-2,.09-.84,0-2,.14-.8.07c-.68,0-1.37.11-2.05.18l-.6.06c-2.44.26-4.87.58-7.3,1l-.39.06-1.89.33-1,.18-1.72.34c-.38.08-.76.15-1.13.24l-1.65.36-1.2.28c-.53.12-1.07.25-1.6.39l-1.24.32-1.55.41-1.28.36-1.52.45-1.3.4-1.48.46-1.37.46-1.4.48c-.88.31-1.76.63-2.63,1l-1.23.47-1.52.6-1.28.53-1.45.61-1.28.56-1.44.65-1.26.58-1.43.69-1.24.61-1.45.74c-.4.21-.8.41-1.2.63l-1.48.8-1.14.62-1.57.91-1,.59c-.65.39-1.3.78-1.94,1.18l-.62.38c-.84.53-1.68,1.06-2.51,1.61l-.81.54-1.7,1.16-1,.69c-.51.36-1,.71-1.51,1.08l-1,.75L429.16,153l-1,.8-1.4,1.11-1,.82-1.39,1.17-1,.83c-.48.41-.95.83-1.42,1.25-.3.27-.61.53-.91.81-.51.46-1,.94-1.53,1.42l-.75.7c-.75.71-1.5,1.44-2.24,2.18l-.06.07c-.75.75-1.49,1.5-2.22,2.27l-.75.81c-.49.52-1,1-1.45,1.57l-.87,1c-.42.48-.85.95-1.27,1.44l-.89,1.06-1.17,1.4-.89,1.12c-.37.46-.74.91-1.1,1.38s-.59.77-.88,1.16-.7.91-1,1.37l-.86,1.2c-.33.46-.66.91-1,1.38s-.56.82-.84,1.23l-.94,1.37-.81,1.26c-.3.46-.6.92-.89,1.38s-.52.86-.78,1.29-.57.92-.85,1.39-.5.87-.76,1.3-.54.93-.8,1.4-.48.88-.73,1.33-.51.93-.76,1.41l-.69,1.34c-.25.47-.49.94-.72,1.42s-.45.91-.67,1.36-.46.95-.68,1.43l-.63,1.37-.64,1.44c-.21.46-.4.93-.6,1.39s-.41,1-.6,1.44-.38.95-.57,1.42-.38,1-.56,1.44-.36,1-.53,1.43-.36,1-.53,1.45-.33,1-.5,1.45l-.49,1.45c-.16.49-.31,1-.46,1.46l-.45,1.46c-.15.49-.29,1-.43,1.47s-.28,1-.41,1.46-.27,1-.4,1.49-.25,1-.37,1.46-.25,1-.37,1.5l-.33,1.46c-.12.51-.22,1-.33,1.52l-.3,1.46c-.1.51-.2,1-.29,1.52l-.27,1.47c-.09.51-.17,1-.25,1.53s-.16,1-.23,1.46-.15,1-.22,1.55-.13,1-.2,1.46l-.18,1.56c-.06.48-.11,1-.16,1.45l-.15,1.57-.12,1.45c0,.52-.07,1-.11,1.57l-.09,1.45c0,.53-.05,1.05-.07,1.58s0,1-.05,1.44,0,1.06,0,1.59,0,1,0,1.44v1.6c0,.47,0,1,0,1.43l0,1.6.06,1.42c0,.54,0,1.07.07,1.61s.05.94.08,1.41l.12,1.62c0,.47.07.93.11,1.4s.1,1.08.16,1.62.09.93.15,1.39.12,1.09.19,1.63.12.92.18,1.37.15,1.1.23,1.64l.21,1.36.27,1.64c.08.45.17.9.25,1.35s.2,1.1.31,1.64l.27,1.34c.12.54.23,1.09.36,1.64l.3,1.32c.13.55.26,1.1.4,1.65s.22.86.33,1.3.29,1.1.44,1.65.24.85.36,1.28.31,1.11.48,1.66l.39,1.25c.17.56.34,1.11.52,1.67l.42,1.23c.19.56.37,1.11.57,1.67.14.4.29.8.44,1.21.2.56.41,1.11.62,1.67l.46,1.18c.22.56.44,1.12.67,1.68l.48,1.15c.24.56.47,1.13.72,1.69.16.37.33.74.5,1.12.26.56.51,1.13.77,1.69.17.36.35.72.52,1.09.27.56.54,1.13.83,1.7.17.35.35.69.53,1,.29.57.58,1.15.88,1.72l.54,1c.31.58.63,1.17.95,1.74l.54,1c.34.58.67,1.17,1,1.76.17.29.35.58.53.87.36.6.72,1.2,1.1,1.8.16.26.33.52.5.78q.59.93,1.2,1.86c.14.22.29.43.44.64.44.66.88,1.32,1.34,2l.31.44c.51.72,1,1.43,1.53,2.13l.06.09a128.26,128.26,0,0,0,10.16,12.11c.75.79,1.5,1.57,2.28,2.34A106.13,106.13,0,0,1,416.51,194.08Z"/><path id="_3" data-name="3" class="cls-6" d="M485.35,148a105.66,105.66,0,0,1,58.06,17.28,106.45,106.45,0,0,1,11.05,2.94,10.61,10.61,0,0,0,10.63-2.6l15.3-15.3,0,0-.31-.21q-1.06-.77-2.16-1.5l-.53-.36-2-1.29-.71-.44-1.8-1.13-.88-.52-1.64-1-1.05-.59c-.49-.28-1-.56-1.48-.83l-1.23-.67-1.28-.67-1.45-.75-1-.5c-.58-.28-1.15-.57-1.73-.84l-.65-.3a127.32,127.32,0,0,0-52.4-11.92h-3.69l-2.05,0-.76,0-2.23.1-.25,0a127.76,127.76,0,0,0-34.68,6.93l-.18.06-2.11.77-.74.28-1.71.66-1.18.48-1.33.55-1.61.69-.94.41-2.11,1-.44.21a127.26,127.26,0,0,0-25.38,15.94l-.11.09c-.71.57-1.4,1.15-2.1,1.74l-.41.35-1.75,1.51-.65.59c-.5.44-1,.89-1.48,1.34l-.83.77-1.27,1.22-.93.9L416,164.56l-1.13,1.17-1.1,1.14-1,1c-.41.44-.82.88-1.22,1.33-.23.25-.45.51-.68.77l-1.44,1.65-.22.28a127.27,127.27,0,0,0-16.48,24.88h0c-.41.82-.81,1.65-1.21,2.48-.06.13-.12.26-.19.39-.33.71-.66,1.43-1,2.15-.12.25-.24.51-.35.77-.27.6-.53,1.2-.78,1.81-.17.39-.33.78-.49,1.17s-.4,1-.59,1.46-.41,1-.61,1.55l-.42,1.12-.7,1.92-.27.79c-.26.75-.51,1.5-.76,2.26l-.16.49c-.27.86-.54,1.71-.79,2.56l-.07.25c-.28.93-.54,1.86-.79,2.8l0,0q-1.59,5.93-2.61,12v0c-.16,1-.31,2-.46,2.94l0,.24q-.19,1.37-.36,2.73l-.06.53c-.1.81-.18,1.63-.26,2.45,0,.3-.06.61-.08.91q-.11,1.05-.18,2.1l-.09,1.38c0,.55-.07,1.1-.1,1.65s-.05,1.33-.07,2c0,.37,0,.74,0,1.12,0,.21,0,.42,0,.63l0,2.43v0A106.16,106.16,0,0,1,485.35,148Z"/><path id="_4" data-name="4" class="cls-7" d="M566.63,164.05l13.76-13.76a126.68,126.68,0,0,0-32.34-16.63l-.09,0c-.84-.29-1.69-.57-2.54-.84l-.11,0c-.85-.28-1.71-.54-2.56-.79l-.06,0a128.71,128.71,0,0,0-18.74-4h-.07c-.81-.11-1.63-.21-2.45-.3l-.38-.05-2.29-.24-.55,0c-.73-.07-1.47-.13-2.2-.18l-.63,0-2.16-.14-.65,0-2.16-.08-.62,0-2.21,0h-.47c-3.45,0-6.89.11-10.33.38l-.28,0q-1,.07-2,.18l-.86.08-1.81.2-1.05.12-1.71.23-1.15.16-1.65.25-1.21.2-1.59.29q-.63.1-1.26.24l-1.55.3-1.3.28-1.5.33-1.36.33-1.43.35-1.48.39-1.31.35-2.11.61-1.36.42-2,.64-1.08.36L464,134l-1.13.41-1.62.6-1.15.45c-.53.2-1.06.41-1.58.63l-1.14.47-1.59.67-1.11.49-1.6.73L452,139l-1.64.8-1,.49-1.72.89-.9.47-1.93,1.05-.67.37q-2.62,1.49-5.19,3.09l-.31.2c-.74.47-1.48.94-2.21,1.43-.23.14-.45.3-.67.45-.61.41-1.22.82-1.82,1.24l-.8.56-1.67,1.2-.84.62L429,153.06l-.85.66L426.62,155l-.83.68L424.23,157l-.79.67-1.6,1.41-.71.63-1.72,1.59-.55.52c-.75.72-1.5,1.44-2.24,2.18A106.14,106.14,0,0,1,566.63,164.05Z"/><path id="_5" data-name="5" class="cls-8" d="M577.11,153.57l3.27-3.27c-.19-.14-.38-.28-.58-.41l-.86-.61-1.62-1.1-.8-.53-1.71-1.1-.77-.49L572.3,145l-.81-.48c-.56-.34-1.14-.67-1.71-1l-.88-.5-1.62-.89-1-.56-1.41-.73-1.27-.65-1-.48a127.44,127.44,0,0,0-53-12.91A105.76,105.76,0,0,1,577.11,153.57Z"/><circle class="cls-3" cx="521.59" cy="311.59" r="42.46"/><path class="cls-9" d="M342.8,313.34V374H260.27v-28c6.37-5.36,12.48-11.07,18.41-17l-18.41-15.31V164.26l20-16.67a182.22,182.22,0,0,0-20-19.61V0H342.8V164.88A148.85,148.85,0,0,0,342.8,313.34ZM202.08,282a73.39,73.39,0,0,1-58.72,29.1c-40.73,0-74.06-32.8-74.06-73.54S102.63,164,143.36,164a73,73,0,0,1,59.78,31.21l57.13-47.61c-29.62-33.85-69.83-55.54-114.79-55.54C64.54,92.05,0,160.82,0,237.52,0,319.52,70.36,383,145.48,383c49.72,0,83.58-24.33,113.2-54Z"/><path class="cls-10" d="M923.85,165.15a140.21,140.21,0,0,0,0,144.34V374h-82V352.32c-.53.53-28.57,30.68-72.48,30.68C695,383,659.6,346.32,644.27,302.91A127.6,127.6,0,0,0,634,185.57v-84h82v134.9c0,43.37,14.82,66.12,63,66.12,34.91,0,61.36-28,61.89-64,0,0,1.06-84.64,1.06-137h82Zm318.47,159.23V374h-82.53V353.38c-25.39,18.51-56.07,30.15-89.4,30.15-78.29,0-146.54-66.65-146.54-146.53,0-75.65,64.54-146,146.54-146,31.74,0,62.42,10.58,89.4,30.15V0h82.53V101.57h-20v134.9C1222.32,265.08,1227.08,297.39,1242.32,324.38ZM1143.92,237a73.53,73.53,0,1,0-147.06,0c0,40.73,32.8,74.06,73.53,74.06S1143.92,277.73,1143.92,237Zm632.16,31.74c-1.58-7.41-4.76-14.29-7.93-20.64a79.4,79.4,0,0,0-28.57-27.5c-22.74-13.23-50.78-18-75.64-21.69-28-4.24-50.26-7.94-50.26-22.22,0-21.16,23.8-25.39,40.2-25.39,13.76,0,46,4.76,46,23.27h70.36c0-14.28-2.65-37-29.63-57.13-21.69-15.87-51.31-24.33-87.28-24.33-64,0-116.39,40.2-116.39,89.93,0,24.33,13.23,43.9,32.27,55,20.11,12.7,43.91,18.52,66.13,21.16,23.28,3.18,66.65,9.53,66.65,35.45,0,20.63-30.15,28.56-45.49,28.56-23.28,0-47.08-12.16-47.08-37h-77.24c0,18.52,4.76,38.62,30.69,65.07,10.58,10.58,24.33,18,39.14,23.28,16.4,6.34,34.92,9.52,54.49,9.52a153.88,153.88,0,0,0,47.08-7.41,119.89,119.89,0,0,0,38.62-19,90.41,90.41,0,0,0,27-28c6.35-11.11,10-22.75,10-34.91A99.16,99.16,0,0,0,1776.08,268.74Zm-263.87,17.45h20V224A61.65,61.65,0,0,1,1517,183c0-16.19,5.55-31.36,15.24-44.47v-37h-82c0,52.37-1.06,137-1.06,137-.53,36-27,64-61.9,64-48.14,0-63-22.75-63-66.12V101.57h-82v134.9c0,64,23.8,146.53,135.42,146.53,43.91,0,72-30.15,72.48-30.68V374h82V339.28C1515.6,318.55,1512.21,301.81,1512.21,286.19Z"/></g></g></svg>