<svg xmlns="http://www.w3.org/2000/svg" xmlns:xlink="http://www.w3.org/1999/xlink" viewBox="0 0 979.1 1000"><defs><style>.cls-1{fill:url(#linear-gradient);}</style><linearGradient id="linear-gradient" y1="500" x2="979.1" y2="500" gradientUnits="userSpaceOnUse"><stop offset="0" stop-color="#7c4dff"/><stop offset="1" stop-color="#2196f3"/></linearGradient></defs><title>Asset 1</title><g id="Layer_2" data-name="Layer 2"><g id="Layer_1-2" data-name="Layer 1"><path class="cls-1" d="M853.57,247.46a431.5,431.5,0,0,0-54.72-46.29h0l28.85-28.85a35.71,35.71,0,0,0-1.45-51.24C629.81-48.41,332.85-40,146.45,146.44c-195.27,195.27-195.27,511.86,0,707.12,192.55,192.55,503.05,195.21,698.88,8,2.64-2.53,5.28-5.07,7.88-7.66l-.72.69q-3.19,3.18-6.45,6.28l-.71.69a430.64,430.64,0,0,1-40.87,34.24l-.18.13q-3.57,2.64-7.21,5.18l-1.44,1c-2.2,1.54-4.42,3-6.64,4.52-.72.48-1.42,1-2.14,1.45-2.09,1.39-4.2,2.73-6.32,4.08-.85.55-1.7,1.11-2.56,1.65-2,1.27-4.08,2.5-6.12,3.74L769,919.35c-2,1.17-4,2.31-6,3.45-1,.59-2.08,1.21-3.13,1.79-1.94,1.09-3.9,2.14-5.85,3.2-1.12.6-2.23,1.22-3.35,1.81-1.92,1-3.84,2-5.77,3-1.18.6-2.34,1.21-3.52,1.79-1.91.95-3.82,1.86-5.74,2.78-1.21.58-2.42,1.17-3.64,1.74-1.9.89-3.81,1.75-5.72,2.6-1.25.56-2.49,1.14-3.74,1.68-1.89.83-3.79,1.63-5.69,2.43-1.29.54-2.57,1.09-3.86,1.62-1.88.77-3.77,1.5-5.66,2.24-1.32.52-2.64,1-4,1.56-1.87.71-3.75,1.39-5.63,2.08-1.35.49-2.7,1-4.06,1.48-1.87.66-3.74,1.29-5.61,1.92-1.39.47-2.77.94-4.15,1.39-1.86.61-3.73,1.19-5.59,1.77-1.41.44-2.82.89-4.24,1.31-1.86.56-3.72,1.09-5.58,1.62l-4.3,1.22q-2.78.75-5.57,1.47c-1.45.38-2.9.76-4.36,1.12q-2.78.69-5.56,1.33c-1.47.35-3,.69-4.42,1-1.85.42-3.7.8-5.54,1.19l-4.48.93-5.54,1-4.53.82-5.52.91c-1.52.24-3,.49-4.58.72-1.83.27-3.66.52-5.5.77-1.54.21-3.08.42-4.63.61-1.82.23-3.65.44-5.47.65l-4.68.5c-1.82.18-3.63.35-5.45.51l-4.72.39c-1.82.14-3.63.27-5.44.38-1.58.11-3.16.2-4.75.29-1.8.09-3.61.18-5.42.25l-4.78.17c-1.79,0-3.59.09-5.39.12-1.6,0-3.21,0-4.81.06q-2.68,0-5.37,0c-1.62,0-3.23,0-4.84-.06l-2.38-.06c-192.6-5.32-347.1-163.11-347.1-357,0-158.44,103.18-292.76,246-339.49a356.82,356.82,0,0,0-90.9,66C209,488,209,714.09,348.48,853.56c139.12,139.12,364.45,139.46,504,1.05l1.08-1.05C1020.94,686.19,1020.94,414.83,853.57,247.46Zm-606.1,101C110.52,485.42,108.05,705.89,240,845.87c-.55-.58-1.12-1.15-1.67-1.74q-3.36-3.57-6.63-7.21l-.95-1c-.31-.34-.61-.69-.92-1l-.92-1,0,0c-2.07-2.36-4.13-4.73-6.14-7.12l-.2-.23-.25-.3a430.33,430.33,0,0,1-36.39-50.24c-.11-.16-.21-.33-.31-.49-1.83-3-3.61-6-5.37-9-.46-.8-.93-1.6-1.4-2.4q-2.39-4.17-4.69-8.39c-.39-.72-.8-1.43-1.18-2.15q-2.85-5.26-5.55-10.62l0-.07q-2.38-4.75-4.64-9.54l-.09-.17,0-.1q-1.87-4-3.66-8l-.18-.41q-1.84-4.15-3.6-8.34c-.42-1-.84-2-1.24-3h0c-.2-.51-.4-1-.61-1.52l-1.74-4.39-.51-1.31c-.16-.41-.33-.83-.49-1.25s-.38-.95-.56-1.43h0c-.71-1.86-1.39-3.73-2.07-5.6v0h0l-.59-1.62c-.29-.79-.58-1.57-.86-2.36l0-.09h0c-.36-1-.71-2.06-1.06-3.1-.84-2.44-1.68-4.9-2.48-7.36-.34-1.05-.67-2.11-1-3.17-.77-2.44-1.53-4.88-2.25-7.33-.4-1.36-.8-2.72-1.19-4.08q-.91-3.24-1.79-6.49c-.31-1.16-.63-2.33-.93-3.49v0c-.11-.43-.23-.87-.34-1.31q-.76-3-1.48-6l-.63-2.63-.12-.53-.45-1.93q-.69-3-1.33-6.07c-.1-.47-.21-.95-.31-1.43s-.23-1.12-.35-1.69l-.36-1.76q-.69-3.42-1.32-6.86l-.45-2.5c-.09-.52-.19-1-.28-1.55q-.61-3.51-1.15-7c-.18-1.09-.35-2.18-.52-3.27-.13-.88-.25-1.77-.37-2.65-.26-1.85-.52-3.71-.76-5.57v0c-.07-.52-.13-1-.2-1.56,0-.1,0-.2,0-.3-.17-1.32-.32-2.63-.47-4-.24-2.14-.49-4.29-.7-6.43-.18-1.74-.34-3.49-.49-5.23h0c-.08-.89-.15-1.79-.23-2.69-.05-.67-.11-1.34-.16-2h0c-.14-1.81-.26-3.62-.38-5.44h0c0-.57-.06-1.14-.1-1.71l-.18-3c0-.07,0-.14,0-.21-.12-2.35-.22-4.71-.31-7.06,0-.41,0-.81,0-1.21l-.06-1.72c-.05-1.67-.09-3.35-.12-5s0-3.52-.06-5.28,0-3.24,0-4.87c0-2.26,0-4.52.1-6.78,0-.28,0-.56,0-.84,5.32-192.6,163.11-347.1,357-347.1A355.46,355.46,0,0,1,674.44,251.5h0L673,251.2l-1.44-.29-1.83-.37-1.57-.29c-1.78-.34-3.57-.67-5.35-1L661.4,249l-1.49-.26c-2.56-.42-5.13-.83-7.69-1.2l-.22,0-.4,0-.24,0c-2.32-.33-4.64-.63-7-.92l-1.83-.22-1.08-.13c-1.61-.18-3.23-.32-4.85-.48-1.19-.12-2.37-.25-3.56-.36l-.55,0-1.61-.14-4.07-.32-1.8-.12c-1.06-.07-2.11-.15-3.17-.21l-.92,0-2.91-.15-.93,0c-1.68-.08-3.37-.14-5.06-.19l-.87,0-2-.05-1.56,0-5.59-.06H599.5q-4,0-8,.12h-.34l-.79,0c-2.33.06-4.66.16-7,.27l-1.49.07-.63,0-.48,0q-3.48.19-7,.46h-.07l-2.2.18-1.44.12-4.23.39-1.47.15-3.36.36-1.16.13-1.58.2c-1.75.21-3.49.44-5.24.67-.84.11-1.68.2-2.53.32h0C443.15,232.18,330.1,265.84,247.47,348.48ZM702,844.9a142.86,142.86,0,1,1,0-202A142.86,142.86,0,0,1,702,844.9Zm50.51-597.44c-137.1-137.1-357.92-139.43-497.87-7,.71-.68,1.42-1.37,2.15-2.05l1.21-1.13,3.13-2.9,3.15-2.86,2.84-2.52,1.26-1.11c1.35-1.18,2.7-2.36,4.06-3.52l1.52-1.29,1.43-1.2q2.63-2.2,5.28-4.36l.89-.74.28-.22q4.35-3.5,8.8-6.89l1.62-1.22q4.47-3.39,9-6.66l1.13-.8q4.45-3.18,9-6.23c.28-.19.56-.39.84-.57q4.74-3.18,9.58-6.23l1.57-1c3.27-2,6.57-4.07,9.9-6l.3-.18q5-2.93,10.06-5.72l1.12-.62q5.07-2.77,10.23-5.42c.45-.24.91-.46,1.36-.69q5-2.56,10.12-5l1-.48h0l.68-.32.32-.15h0q3-1.41,6.06-2.77l.1-.05,1.09-.49.34-.15h0l4.11-1.8,1.65-.71,2.25-1h0l.37-.16,1.29-.54.87-.36.38-.16.11,0h0l2.45-1,4-1.6,1-.4.5-.2h0l.88-.34.94-.37.46-.18,1-.36q2.4-.91,4.82-1.78l1.39-.51,2.69-1h0c1.85-.65,3.71-1.28,5.57-1.91h0l3.81-1.28,1.63-.52c1.43-.46,2.86-.92,4.3-1.36l1.61-.5,3.63-1.11h0c1.52-.46,3-.89,4.56-1.33l3-.85.77-.21.95-.26.58-.15.84-.23.8-.21h0l2.91-.77,3.31-.85h0l1.55-.38.3-.07,1.71-.42,3-.72,2.33-.54.95-.22,2.1-.46,1.21-.27,3.06-.66,1.14-.23h0l.78-.16.57-.12.82-.16,3.19-.64,3.81-.72,1.28-.23,2.26-.4,1.2-.21.07,0,1.58-.27c1-.17,2.08-.35,3.12-.51q5.46-.89,10.94-1.62c.53-.08,1.06-.14,1.6-.21q5.54-.74,11.1-1.32l3.38-.35.21,0,.8-.07,3.43-.31.41,0h0l2.89-.25,1.19-.1q3.88-.28,7.77-.51l1-.06c2.61-.15,5.21-.27,7.82-.37h.28l.73,0h0q3.95-.14,7.9-.21h.88c2.7,0,5.4-.06,8.1,0h.9l1.88,0,1.91,0c2.1,0,4.2.1,6.3.16a355.69,355.69,0,0,1,224.55,90Z"/></g></g></svg>