<svg xmlns="http://www.w3.org/2000/svg" xmlns:xlink="http://www.w3.org/1999/xlink" viewBox="0 0 376.55 384.59"><defs><style>.cls-1{fill:url(#무제_그라디언트_13);}.cls-2{fill:url(#무제_그라디언트_15);}.cls-3{fill:#fff;}.cls-4{fill:#d2fbf0;}.cls-5{fill:#a5f6e2;}.cls-6{fill:#77f2d3;}.cls-7{fill:#4aedc5;}</style><linearGradient id="무제_그라디언트_13" x1="211.72" y1="376.54" x2="211.72" y2="46.89" gradientUnits="userSpaceOnUse"><stop offset="0" stop-color="#2196f3"/><stop offset="1" stop-color="#7c4dff"/></linearGradient><linearGradient id="무제_그라디언트_15" x1="164.07" y1="384.59" x2="164.07" gradientUnits="userSpaceOnUse"><stop offset="0" stop-color="#2196f3"/><stop offset="1" stop-color="#1de9b6"/></linearGradient></defs><title>logo</title><g id="Layer_2" data-name="Layer 2"><g id="icon"><circle class="cls-1" cx="211.72" cy="211.72" r="164.82"/><path class="cls-2" d="M134,328.27A137.36,137.36,0,0,1,273.68,100.53a13.79,13.79,0,0,0,13.76-3.38l30.88-30.88a13.73,13.73,0,0,0-.56-19.71C242.21-18.62,128-15.37,56.32,56.32c-75.09,75.1-75.09,196.85,0,272s196.7,75.09,271.81.13A137.36,137.36,0,0,1,134,328.27Z"/><path id="_0" data-name="0" class="cls-3" d="M134,328.27A137.36,137.36,0,0,1,273.68,100.53a13.79,13.79,0,0,0,13.76-3.38l19.78-19.79a164.83,164.83,0,1,0,17.88,254c1-1,2-2,3-3A137.36,137.36,0,0,1,134,328.27Z"/><path id="_1" data-name="1" class="cls-4" d="M91,99.56,89.59,101c-.6.67-1.2,1.34-1.79,2L87,104c-.68.8-1.36,1.6-2,2.41-.17.2-.34.39-.5.59-.74.9-1.48,1.82-2.2,2.74L82,110c-.78,1-1.55,2-2.31,3l-.06.07a165.76,165.76,0,0,0-12.8,20l-.07.12c-.59,1.09-1.16,2.18-1.73,3.28l-.21.43q-.77,1.48-1.5,3l-.39.81c-.42.88-.83,1.76-1.23,2.65l-.57,1.26c-.33.74-.65,1.48-1,2.22-.25.59-.5,1.17-.74,1.76l-.72,1.76c-.3.75-.59,1.51-.88,2.26-.17.43-.33.86-.49,1.3-.35.91-.68,1.82-1,2.74l-.3.85c-.37,1.06-.72,2.11-1.07,3.18l-.15.45c-.38,1.18-.74,2.36-1.09,3.55l0,.13A165.29,165.29,0,0,0,48.6,188l0,.09c-.18,1.25-.34,2.5-.49,3.76,0,.13,0,.26-.05.39-.13,1.16-.26,2.32-.37,3.48,0,.26-.05.52-.07.78-.1,1-.19,2.09-.26,3.14,0,.42-.06.85-.08,1.27-.06.89-.12,1.79-.16,2.69,0,.66-.06,1.33-.08,2s-.06,1.34-.07,2c0,1.36-.05,2.71-.05,4.08h0c0,1.35,0,2.7.05,4,0,.74,0,1.48.08,2.22s0,1.18.06,1.76c0,1,.11,2,.18,3l.06.91q.12,1.79.3,3.57c0,.11,0,.22,0,.33a164.68,164.68,0,0,0,7.15,34.72l.09.26c.35,1.1.72,2.19,1.09,3.27l.24.67c.32.94.67,1.87,1,2.8l.42,1.12c.29.77.6,1.53.9,2.3l.64,1.6c.24.58.49,1.17.74,1.75s.59,1.39.9,2.09q.25.6.54,1.2c.38.86.78,1.73,1.18,2.58l.3.63c.49,1,1,2.06,1.5,3.08l0,.05a165.19,165.19,0,0,0,21.11,32l.51.61c.59.69,1.18,1.37,1.78,2.05l1,1.09c.51.58,1,1.14,1.55,1.71s.84.92,1.27,1.37L93,326c.49.51,1,1,1.48,1.51l1.38,1.39,1.46,1.42,1.5,1.44c.43.41.87.81,1.31,1.21l1.74,1.59,1,.88,2.12,1.85.51.42a164.44,164.44,0,0,0,42.06,25.84l.91.39c.65.27,1.3.52,2,.78l1.86.75,1,.37a165,165,0,0,0,40.62,9.72l.31,0c1,.11,2,.2,3,.28l1.14.11,2.4.17,1.74.11,2,.09,2.16.09,1.27,0A137.37,137.37,0,0,1,169,108.63a137.72,137.72,0,0,1,104.7-8.1,13.79,13.79,0,0,0,13.76-3.38l19.78-19.78q-2.7-1.92-5.47-3.73l-.13-.09c-.89-.58-1.78-1.14-2.68-1.71l-.38-.24c-.82-.51-1.65-1-2.48-1.5l-.64-.39c-.74-.44-1.49-.86-2.24-1.29l-1-.55c-.64-.36-1.29-.71-1.94-1.06-.44-.24-.88-.49-1.33-.72l-1.59-.83-1.74-.89-1.19-.59-2.2-1.07-.75-.35q-1.35-.63-2.7-1.23l-.26-.12a165,165,0,0,0-65.28-14.1h-3.2l-1.25,0L206.2,47l-1,0c-1,0-1.92.08-2.88.14h-.17A165.52,165.52,0,0,0,160.43,55l-.09,0-3.08,1-.62.22c-.89.32-1.78.64-2.67,1l-1.09.41-2.26.88-1.72.7-1.65.68c-1.09.47-2.17.94-3.25,1.43l-.12.05a164.59,164.59,0,0,0-40,25.6l0,0c-.93.8-1.84,1.62-2.74,2.44l-.24.21c-.84.76-1.67,1.54-2.5,2.32l-.4.37c-.94.9-1.88,1.82-2.8,2.74s-1.91,1.94-2.85,2.92C91.86,98.57,91.41,99.07,91,99.56Z"/><path id="_2" data-name="2" class="cls-5" d="M95.17,134A137.13,137.13,0,0,1,211.74,95.17a137.8,137.8,0,0,1,61.94,5.36,13.79,13.79,0,0,0,13.76-3.38l19.78-19.79h0c-1-.71-2-1.41-3-2.1l0,0a163.8,163.8,0,0,0-28.74-15.57l-.05,0c-1.09-.46-2.19-.9-3.29-1.33l-.07,0a163.78,163.78,0,0,0-27.19-8l-.29-.06c-1-.22-2.1-.42-3.15-.61l-.45-.08-3.1-.53-.48-.07c-1-.16-2.09-.32-3.13-.46l-.34,0A165.94,165.94,0,0,0,216.51,47h-.08l-3-.06h-3.49l-.95,0-2.65.06-1.06,0c-.86,0-1.73.07-2.59.12l-1.09.06c-.86.06-1.73.11-2.59.18l-1,.09-2.67.24-.76.08q-4.74.5-9.45,1.26l-.51.08c-.81.13-1.63.28-2.44.43l-1.27.23-2.23.44-1.46.3L175,51l-1.55.36-2.06.5-1.61.41-2,.54-1.65.47-2,.57-1.68.52-1.92.6-1.77.6L157,56.2c-1.14.4-2.28.82-3.41,1.24l-1.59.62-2,.77-1.65.68-1.88.79-1.65.73-1.86.84-1.63.76-1.86.89-1.6.79c-.63.31-1.25.63-1.87,1l-1.56.81-1.91,1-1.47.81c-.69.38-1.36.78-2,1.17l-1.32.76-2.52,1.54-.79.48c-1.1.68-2.18,1.38-3.26,2.09l-1,.7c-.74.5-1.47,1-2.2,1.5-.43.29-.84.59-1.26.89-.65.46-1.31.92-2,1.4l-1.32,1-1.85,1.4-1.33,1-1.81,1.44-1.31,1.06-1.8,1.51c-.42.36-.84.71-1.26,1.08l-1.83,1.61c-.39.35-.79.69-1.17,1-.67.6-1.33,1.22-2,1.84l-1,.9c-1,.93-1.94,1.87-2.9,2.83l-.08.08c-1,1-1.92,2-2.86,2.94-.34.35-.66.71-1,1.06-.63.67-1.26,1.34-1.88,2-.38.42-.74.85-1.12,1.27-.55.62-1.1,1.23-1.64,1.86l-1.16,1.38-1.51,1.8c-.39.48-.77,1-1.16,1.46s-1,1.18-1.41,1.78-.76,1-1.14,1.5-.9,1.18-1.34,1.78-.75,1-1.12,1.55-.86,1.18-1.27,1.78L75.41,119c-.4.6-.81,1.19-1.21,1.78s-.7,1.09-1,1.63-.78,1.19-1.15,1.79-.68,1.11-1,1.66-.74,1.2-1.09,1.8-.66,1.12-1,1.69-.7,1.2-1,1.81-.63,1.14-.94,1.71l-1,1.83-.9,1.74c-.31.61-.63,1.22-.93,1.83l-.86,1.77c-.29.61-.59,1.22-.88,1.84s-.54,1.19-.81,1.78-.57,1.24-.84,1.86-.51,1.2-.77,1.81-.53,1.24-.78,1.86-.49,1.22-.73,1.83-.49,1.24-.73,1.87-.46,1.23-.69,1.85-.46,1.25-.68,1.87l-.65,1.88-.63,1.87-.6,1.9c-.19.62-.39,1.25-.58,1.88s-.37,1.27-.56,1.91-.36,1.26-.53,1.89-.34,1.28-.51,1.92-.33,1.26-.49,1.89-.31,1.3-.47,1.94-.29,1.26-.43,1.9-.29,1.3-.43,1.95l-.39,1.9c-.13.65-.25,1.31-.37,2s-.24,1.26-.35,1.89l-.33,2c-.1.63-.2,1.26-.29,1.89s-.2,1.33-.29,2-.17,1.26-.25,1.89l-.24,2c-.07.63-.14,1.26-.2,1.88s-.13,1.35-.19,2-.11,1.25-.16,1.88-.1,1.36-.14,2l-.12,1.87-.09,2c0,.62,0,1.24-.07,1.86s0,1.37,0,2.06,0,1.24,0,1.86,0,1.38,0,2.07,0,1.23,0,1.84,0,1.39,0,2.08,0,1.23.06,1.84.06,1.39.1,2.08.07,1.22.11,1.83.09,1.39.14,2.09.1,1.21.16,1.81.12,1.4.19,2.1.13,1.2.2,1.8.16,1.41.24,2.11l.24,1.78c.09.7.19,1.41.3,2.11s.18,1.18.27,1.77.23,1.41.35,2.11.21,1.17.32,1.75.26,1.42.4,2.12l.36,1.73.45,2.13c.13.57.27,1.14.4,1.7.17.72.33,1.43.51,2.14.14.56.29,1.12.43,1.68s.37,1.43.57,2.14c.15.55.31,1.1.47,1.65.2.72.4,1.44.62,2.15.16.54.33,1.08.5,1.63.22.71.45,1.43.68,2.15l.54,1.59c.24.72.48,1.44.74,2.16.18.52.38,1,.57,1.57.26.72.52,1.44.8,2.16.19.51.39,1,.59,1.53.29.72.57,1.45.87,2.17.2.5.41,1,.62,1.49.31.73.61,1.46.93,2.18.21.49.44,1,.65,1.45.33.74.66,1.47,1,2.19l.67,1.41c.35.73.7,1.47,1.07,2.2.22.45.46.9.68,1.35.38.74.76,1.49,1.15,2.23l.7,1.28c.4.75.81,1.5,1.22,2.25l.7,1.22c.44.76.87,1.52,1.32,2.28l.69,1.13c.47.78.94,1.56,1.42,2.33.21.34.43.67.65,1,.51.81,1,1.62,1.56,2.42.18.28.37.55.56.83.57.85,1.14,1.7,1.73,2.54l.41.57q1,1.4,2,2.76a.76.76,0,0,0,.08.11A165.33,165.33,0,0,0,92.09,325.1c1,1,2,2,3,3A137.35,137.35,0,0,1,95.17,134Z"/><path id="_3" data-name="3" class="cls-6" d="M184.25,74.36a136.74,136.74,0,0,1,75.13,22.36,137.63,137.63,0,0,1,14.3,3.81,13.79,13.79,0,0,0,13.76-3.38l19.78-19.78-.06-.05-.39-.27c-.93-.66-1.86-1.31-2.8-1.94l-.69-.46L300.74,73l-.91-.58c-.77-.49-1.55-1-2.33-1.45l-1.14-.68q-1-.64-2.13-1.26l-1.35-.77L291,67.17l-1.6-.87-1.65-.87-1.89-1-1.31-.66c-.75-.36-1.49-.73-2.24-1.08l-.84-.39a164.83,164.83,0,0,0-67.8-15.42l-1,0H210l-1.17,0-2.65.06-1,0c-1,0-1.93.08-2.89.14l-.32,0a165,165,0,0,0-44.88,9l-.23.08-2.73,1-1,.36-2.21.86-1.53.61-1.73.71-2.08.9-1.21.53-2.73,1.25-.58.27a164.87,164.87,0,0,0-32.83,20.64l-.14.11c-.92.74-1.82,1.49-2.72,2.24l-.53.46-2.26,2-.85.76-1.91,1.73-1.07,1c-.56.52-1.11,1-1.65,1.57L96,94.37c-.49.48-1,1-1.46,1.46s-1,1-1.47,1.51-1,1-1.42,1.48l-1.25,1.35c-.52.57-1,1.14-1.57,1.72-.3.33-.59.67-.88,1-.63.71-1.25,1.42-1.86,2.14l-.3.35a165.43,165.43,0,0,0-21.31,32.2h0c-.54,1.07-1.06,2.14-1.57,3.21l-.24.5c-.44.93-.86,1.85-1.28,2.78l-.45,1c-.34.77-.68,1.55-1,2.34l-.63,1.51c-.26.62-.51,1.25-.76,1.89s-.53,1.33-.79,2l-.54,1.45c-.31.83-.61,1.66-.91,2.49l-.35,1c-.34,1-.67,1.95-1,2.93-.06.21-.13.42-.2.64-.35,1.1-.7,2.2-1,3.31,0,.1-.07.21-.1.31-.35,1.21-.7,2.42-1,3.63l0,.06q-2.07,7.67-3.38,15.47v0c-.21,1.26-.41,2.53-.59,3.8,0,.1,0,.2,0,.31-.16,1.17-.32,2.35-.46,3.53,0,.23-.05.46-.08.68-.12,1.06-.24,2.12-.34,3.18,0,.39-.07.78-.11,1.17-.08.91-.16,1.81-.22,2.72-.05.59-.08,1.19-.12,1.79s-.09,1.42-.13,2.14-.07,1.72-.1,2.58c0,.48,0,1,0,1.45,0,.27,0,.55,0,.82,0,1,0,2.09,0,3.14v0A137.35,137.35,0,0,1,184.25,74.36Z"/><path id="_4" data-name="4" class="cls-7" d="M289.42,95.17l17.8-17.81a163.56,163.56,0,0,0-41.84-21.51l-.11,0c-1.09-.38-2.19-.74-3.29-1.09l-.15,0c-1.1-.35-2.2-.69-3.31-1l-.08,0a165.71,165.71,0,0,0-24.25-5.2h-.08l-3.17-.4-.5-.06c-1-.11-2-.21-3-.3l-.71-.07q-1.43-.14-2.85-.24l-.81-.05c-.93-.07-1.86-.12-2.8-.17l-.84,0c-.93-.05-1.86-.09-2.8-.11l-.79,0c-1,0-1.91-.05-2.87-.05h-.61q-6.69,0-13.36.48l-.36,0-2.61.24-1.1.1-2.35.26-1.36.16-2.22.29-1.48.21-2.13.33-1.57.26-2.06.37-1.63.31-2,.39-1.69.37-1.94.43-1.76.42-1.85.45c-.64.16-1.28.34-1.92.51s-1.12.29-1.68.45c-.92.25-1.83.52-2.74.79l-1.76.54-2.61.82-1.4.48-2.18.74-1.47.54-2.09.77-1.49.58-2.05.82-1.47.61c-.69.28-1.37.57-2.06.87l-1.44.63-2.07.94-1.39.65-2.12,1-1.3.64-2.24,1.15-1.16.61c-.83.44-1.67.9-2.5,1.36l-.86.48c-2.26,1.27-4.51,2.6-6.72,4l-.41.26c-1,.61-1.91,1.22-2.85,1.85l-.87.58c-.79.53-1.58,1.06-2.36,1.61l-1,.72c-.73.51-1.45,1-2.17,1.55l-1.08.81-2.07,1.56-1.1.86c-.68.53-1.35,1.06-2,1.61l-1.08.87c-.68.56-1.35,1.13-2,1.7l-1,.87-2.07,1.82-.92.82c-.74.68-1.48,1.36-2.22,2.06l-.71.66c-1,.93-1.94,1.87-2.9,2.82A137.36,137.36,0,0,1,289.42,95.17Z"/><circle class="cls-3" cx="231.15" cy="286.08" r="54.94"/></g></g></svg>