<svg xmlns="http://www.w3.org/2000/svg" xmlns:xlink="http://www.w3.org/1999/xlink" viewBox="0 0 1000 1000"><defs><style>.cls-1,.cls-2,.cls-3,.cls-4,.cls-5,.cls-6,.cls-7,.cls-8{opacity:0.3;}.cls-1{fill:url(#무제_그라디언트_12);}.cls-2{fill:url(#무제_그라디언트_9);}.cls-3{fill:#fff;}.cls-4{fill:#d2fbf0;}.cls-5{fill:#a5f6e2;}.cls-6{fill:#77f2d3;}.cls-7{fill:#4aedc5;}.cls-8{fill:#1de9b6;}.cls-10,.cls-11,.cls-12,.cls-13,.cls-14,.cls-15,.cls-16,.cls-17,.cls-18,.cls-19,.cls-20,.cls-21,.cls-22,.cls-23,.cls-24,.cls-9{fill:none;stroke-miterlimit:10;stroke-width:2px;}.cls-9{stroke:#172a88;}.cls-10{stroke:#fff;}.cls-11{stroke:#d2fbf0;}.cls-12,.cls-24{stroke:#a5f6e2;}.cls-13{stroke:#77f2d3;}.cls-14{stroke:#4aedc5;}.cls-15{stroke:#1de9b6;}.cls-16{stroke:url(#무제_그라디언트_46);}.cls-17{stroke:url(#무제_그라디언트_42);}.cls-18{stroke:url(#무제_그라디언트_46-2);}.cls-19{stroke:url(#무제_그라디언트_42-2);}.cls-20{stroke:url(#무제_그라디언트_42-3);}.cls-21{stroke:#7c4dff;}.cls-22{stroke:#2196f3;}.cls-23{stroke:#000;}.cls-24{opacity:0.5;}</style><linearGradient id="무제_그라디언트_12" x1="549.82" y1="891.45" x2="549.82" y2="191.08" gradientUnits="userSpaceOnUse"><stop offset="0" stop-color="#2196f3"/><stop offset="1" stop-color="#7c4dff"/></linearGradient><linearGradient id="무제_그라디언트_9" x1="448.57" y1="908.54" x2="448.57" y2="91.46" gradientUnits="userSpaceOnUse"><stop offset="0" stop-color="#2196f3"/><stop offset="1" stop-color="#1de9b6"/></linearGradient><linearGradient id="무제_그라디언트_46" x1="99" y1="500" x2="918.09" y2="500" gradientTransform="translate(8.54 1008.54) rotate(-90)" xlink:href="#무제_그라디언트_9"/><linearGradient id="무제_그라디언트_42" x1="298.26" y1="582.54" x2="883.9" y2="582.54" gradientTransform="translate(8.54 1173.62) rotate(-90)" xlink:href="#무제_그라디언트_12"/><linearGradient id="무제_그라디언트_46-2" x1="99" y1="500" x2="101" y2="500" xlink:href="#무제_그라디언트_9"/><linearGradient id="무제_그라디언트_42-2" x1="298.26" y1="500" x2="300.26" y2="500" xlink:href="#무제_그라디언트_12"/><linearGradient id="무제_그라디언트_42-3" x1="881.59" y1="517.41" x2="883.59" y2="517.41" xlink:href="#무제_그라디언트_12"/></defs><title>pre</title><g id="레이어_12" data-name="레이어 12"><circle class="cls-1" cx="549.82" cy="541.27" r="350.18"/><path class="cls-2" d="M384.74,788.88c-114-114-114-298.73,0-412.69C465,295.92,580.41,272.21,681.46,305a29.21,29.21,0,0,0,29.22-7.16l65.61-65.62a29.16,29.16,0,0,0-1.18-41.87C614.6,51.9,372,58.81,219.66,211.11c-159.55,159.55-159.55,418.23,0,577.77s417.91,159.55,577.48.29C683.15,902.84,498.6,902.75,384.74,788.88Z"/><path id="_0" data-name="0" class="cls-3" d="M384.74,788.88c-114-114-114-298.73,0-412.69C465,295.92,580.41,272.21,681.46,305a29.21,29.21,0,0,0,29.22-7.16l42-42.05C616,158.37,424.89,171,302.2,293.65c-136.76,136.76-136.76,358.48,0,495.23,134.53,134.54,351.3,136.72,488.51,6.55q3.22-3.09,6.43-6.26C683.15,902.84,498.6,902.75,384.74,788.88Z"/><path id="_1" data-name="1" class="cls-4" d="M293.25,303c-1,1-1.95,2.09-2.91,3.14-1.28,1.41-2.54,2.85-3.8,4.28-.59.68-1.19,1.35-1.78,2q-2.19,2.54-4.33,5.12l-1.05,1.26q-2.37,2.88-4.68,5.81l-.51.65q-2.49,3.17-4.91,6.39l-.12.16A350.1,350.1,0,0,0,242,374.24l-.14.25c-1.25,2.31-2.47,4.64-3.68,7-.15.3-.3.6-.46.9-1.08,2.11-2.13,4.24-3.17,6.38-.28.58-.55,1.15-.82,1.73q-1.33,2.79-2.63,5.61l-1.2,2.69q-1.05,2.36-2.07,4.72c-.53,1.24-1,2.48-1.56,3.73s-1,2.5-1.54,3.75c-.63,1.59-1.26,3.19-1.87,4.8-.36.91-.71,1.83-1,2.75q-1.08,2.91-2.12,5.83l-.63,1.8q-1.17,3.36-2.27,6.75c-.11.32-.21.65-.32,1-.8,2.5-1.58,5-2.32,7.53l-.09.28a351.15,351.15,0,0,0-10.77,49.24l0,.2q-.57,4-1.05,8c0,.27-.07.55-.1.83q-.44,3.69-.8,7.4c-.05.55-.09,1.1-.14,1.65q-.31,3.33-.56,6.67c-.07.89-.11,1.8-.17,2.7-.13,1.9-.25,3.8-.34,5.7-.07,1.42-.11,2.85-.16,4.27s-.12,2.84-.16,4.26q-.11,4.32-.11,8.67h0q0,4.31.11,8.59c0,1.57.11,3.14.17,4.7.05,1.25.08,2.51.14,3.76.1,2.14.24,4.27.38,6.41l.12,1.94c.19,2.52.4,5.05.64,7.57l.06.7a350.16,350.16,0,0,0,15.2,73.78l.18.55q1.13,3.48,2.33,7c.17.47.33.95.5,1.42q1,3,2.16,6c.29.8.59,1.59.89,2.38.62,1.63,1.26,3.25,1.9,4.87.46,1.13.9,2.27,1.37,3.4s1,2.49,1.56,3.73c.63,1.48,1.26,3,1.91,4.43.37.86.76,1.71,1.15,2.56.82,1.83,1.65,3.66,2.51,5.48.21.45.43.9.65,1.35q1.56,3.29,3.19,6.54l.05.1a350.48,350.48,0,0,0,44.85,68l1.08,1.29c1.25,1.47,2.52,2.92,3.79,4.36.67.78,1.35,1.55,2,2.32,1.08,1.22,2.18,2.42,3.28,3.62.9,1,1.8,2,2.72,2.92s2,2.1,3,3.14,2.08,2.15,3.13,3.22l2.95,2.95q1.53,1.51,3.09,3c1.06,1,2.12,2.05,3.19,3.06l2.77,2.56q1.85,1.71,3.72,3.39l2.1,1.86c1.5,1.32,3,2.64,4.53,3.93l1.07.9a350.31,350.31,0,0,0,89.36,54.9l1.94.83c1.37.57,2.75,1.11,4.13,1.66s2.63,1.07,4,1.58l2.13.8a350.22,350.22,0,0,0,86.29,20.64l.67.07c2.1.23,4.19.42,6.29.6l2.44.22c1.69.14,3.39.25,5.09.36,1.23.08,2.46.17,3.69.24l4.24.2c1.53.06,3,.13,4.58.17l2.7.07C384.24,887,258,758.05,258,599.63c0-129.46,84.31-239.21,201-277.39A292.69,292.69,0,0,1,681.46,305a29.21,29.21,0,0,0,29.22-7.16l42-42q-5.73-4.08-11.61-7.93l-.28-.19c-1.89-1.23-3.79-2.43-5.7-3.63l-.8-.5c-1.74-1.09-3.5-2.15-5.26-3.2-.47-.27-.92-.56-1.38-.83q-2.37-1.4-4.75-2.74l-2-1.16c-1.37-.77-2.75-1.52-4.13-2.27L714,231.87c-1.12-.6-2.26-1.18-3.38-1.76s-2.46-1.28-3.7-1.9L704.33,227q-2.33-1.16-4.67-2.27l-1.59-.74q-2.87-1.33-5.74-2.63l-.55-.24a350.44,350.44,0,0,0-138.7-30H552c-1.9,0-3.79,0-5.68,0l-2.66,0c-1.85,0-3.7.08-5.54.14l-2.2.08c-2,.08-4.08.17-6.11.29l-.38,0a351.21,351.21,0,0,0-88.57,16.71l-.19.06q-3.27,1.08-6.53,2.22l-1.32.46q-2.85,1-5.68,2.07l-2.32.88q-2.4.91-4.8,1.86l-3.65,1.49-3.51,1.45c-2.31,1-4.61,2-6.9,3l-.26.11a350.3,350.3,0,0,0-84.95,54.38l-.1.08c-2,1.7-3.9,3.43-5.82,5.17l-.51.45c-1.79,1.63-3.55,3.28-5.3,4.94l-.85.79c-2,1.91-4,3.85-5.95,5.81s-4.06,4.12-6.05,6.21C295.17,300.88,294.21,301.93,293.25,303Z"/><path id="_2" data-name="2" class="cls-5" d="M302.2,376.19a291.35,291.35,0,0,1,247.66-82.54A293.18,293.18,0,0,1,681.46,305a29.21,29.21,0,0,0,29.22-7.16l42-42.05h0c-2.13-1.51-4.26-3-6.42-4.46l-.07-.05a347,347,0,0,0-61.07-33.08l-.1,0c-2.32-1-4.64-1.91-7-2.83l-.15-.06a349.06,349.06,0,0,0-57.77-17.08l-.61-.13q-3.34-.68-6.71-1.28l-1-.18q-3.28-.59-6.59-1.11l-1-.16q-3.33-.53-6.67-1l-.72-.1a353.79,353.79,0,0,0-36.91-3h-.18c-2.14-.06-4.28-.09-6.42-.11l-1.51,0c-2,0-3.92,0-5.89,0l-2,0c-1.88,0-3.75.08-5.63.14l-2.25.09c-1.84.07-3.68.15-5.52.25l-2.3.14c-1.84.11-3.68.23-5.52.37l-2.18.19c-1.89.15-3.78.31-5.66.5l-1.64.18q-10,1.05-20.06,2.67l-1.08.17q-2.59.43-5.19.92l-2.69.49c-1.59.3-3.17.62-4.75.94l-3.11.64c-1.51.32-3,.66-4.53,1l-3.29.76c-1.47.35-2.93.7-4.39,1.07l-3.42.88c-1.42.37-2.85.75-4.27,1.14-1.17.32-2.34.66-3.5,1-1.39.4-2.79.8-4.18,1.22l-3.58,1.1-4.07,1.29c-1.25.4-2.5.84-3.76,1.26s-2.57.85-3.84,1.3q-3.65,1.27-7.25,2.64c-1.13.42-2.25.87-3.38,1.31-1.39.54-2.79,1.08-4.18,1.64-1.17.47-2.34,1-3.51,1.45-1.33.55-2.67,1.11-4,1.68-1.17.5-2.34,1-3.51,1.54s-2.64,1.17-3.95,1.78-2.31,1.07-3.47,1.62c-1.32.62-2.63,1.25-3.94,1.89-1.14.55-2.28,1.11-3.41,1.68-1.32.66-2.65,1.34-4,2l-3.3,1.72L381.63,234l-3.13,1.72c-1.45.81-2.88,1.65-4.32,2.48l-2.8,1.63c-1.8,1.06-3.58,2.15-5.36,3.25l-1.69,1c-2.32,1.45-4.62,2.94-6.91,4.45-.74.48-1.47,1-2.21,1.48q-2.35,1.57-4.69,3.18l-2.67,1.89q-2.09,1.47-4.15,3c-.93.68-1.86,1.38-2.79,2.08-1.32,1-2.64,2-3.94,3q-1.43,1.08-2.82,2.19c-1.29,1-2.57,2-3.85,3.05l-2.77,2.26q-1.92,1.59-3.83,3.21c-.89.75-1.79,1.51-2.68,2.28-1.3,1.13-2.6,2.28-3.9,3.43-.83.74-1.66,1.47-2.48,2.22-1.42,1.29-2.82,2.6-4.23,3.92l-2.05,1.91q-3.11,3-6.16,6l-.17.17q-3.09,3.1-6.09,6.25c-.7.74-1.38,1.5-2.08,2.24-1.33,1.43-2.68,2.85-4,4.3-.81.89-1.59,1.8-2.38,2.7-1.17,1.31-2.34,2.62-3.49,3.95-.83,1-1.64,2-2.46,2.93-1.07,1.28-2.15,2.55-3.2,3.84-.84,1-1.65,2.06-2.47,3.09-1,1.25-2,2.51-3,3.78-.82,1.06-1.61,2.13-2.42,3.2-.95,1.25-1.92,2.51-2.85,3.77-.8,1.09-1.58,2.2-2.37,3.3-.91,1.26-1.82,2.51-2.71,3.78s-1.54,2.25-2.31,3.38-1.72,2.52-2.56,3.79-1.5,2.3-2.24,3.46-1.65,2.52-2.45,3.8-1.44,2.34-2.16,3.52-1.56,2.55-2.32,3.83-1.39,2.38-2.08,3.57-1.49,2.57-2.21,3.86-1.33,2.43-2,3.64-1.41,2.58-2.1,3.88-1.28,2.46-1.91,3.7-1.34,2.58-2,3.89-1.22,2.49-1.82,3.74-1.27,2.61-1.88,3.92-1.16,2.53-1.73,3.79-1.19,2.63-1.77,3.95-1.1,2.55-1.64,3.83-1.12,2.64-1.66,4-1,2.59-1.55,3.89-1,2.64-1.56,4-1,2.62-1.46,3.94-1,2.65-1.44,4-.92,2.66-1.37,4-.91,2.66-1.34,4-.86,2.67-1.28,4-.84,2.67-1.24,4-.79,2.71-1.18,4.06-.77,2.67-1.14,4-.73,2.72-1.08,4.09-.7,2.68-1,4-.66,2.75-1,4.12-.63,2.68-.93,4-.6,2.77-.9,4.15-.56,2.68-.82,4-.54,2.8-.8,4.2-.5,2.68-.73,4-.48,2.81-.71,4.22-.43,2.67-.63,4-.41,2.83-.6,4.25-.36,2.67-.53,4-.35,2.86-.51,4.29-.29,2.66-.43,4-.28,2.88-.41,4.31-.23,2.66-.33,4-.22,2.89-.31,4.33-.17,2.65-.24,4-.14,2.9-.2,4.35-.11,2.64-.15,4-.08,2.91-.1,4.36,0,2.64-.05,4c0,1.47,0,2.93,0,4.39,0,1.31,0,2.62.05,3.93,0,1.47,0,2.94.1,4.41,0,1.3.08,2.61.14,3.91.06,1.47.12,2.95.2,4.42.07,1.3.15,2.59.23,3.88.1,1.49.2,3,.31,4.45.1,1.28.21,2.57.32,3.85.14,1.48.27,3,.42,4.46.13,1.27.27,2.55.41,3.82.17,1.49.34,3,.53,4.48.16,1.26.33,2.52.5,3.78.2,1.5.41,3,.63,4.49.19,1.25.39,2.5.59,3.75.24,1.5.48,3,.74,4.5.22,1.24.45,2.48.68,3.71.27,1.51.55,3,.85,4.51.24,1.23.5,2.45.76,3.67.31,1.51.63,3,1,4.52q.41,1.82.84,3.63c.35,1.51.7,3,1.08,4.53.3,1.19.61,2.38.92,3.57.39,1.52.79,3,1.2,4.55.32,1.17.66,2.34,1,3.51.44,1.52.87,3,1.33,4.56.34,1.15.71,2.31,1.07,3.46.47,1.52.94,3,1.44,4.57.37,1.13.76,2.26,1.14,3.39.52,1.53,1,3.06,1.57,4.58.39,1.11.81,2.22,1.21,3.33.56,1.53,1.12,3.07,1.7,4.59.41,1.09.85,2.17,1.27,3.25.61,1.54,1.21,3.08,1.83,4.62.44,1.06.89,2.11,1.34,3.17.65,1.54,1.29,3.09,2,4.63.46,1,.93,2,1.39,3.08.7,1.56,1.39,3.11,2.11,4.65.47,1,1,2,1.43,3,.75,1.56,1.5,3.12,2.27,4.68.48,1,1,1.91,1.46,2.86.8,1.58,1.6,3.16,2.43,4.73.49.92,1,1.82,1.48,2.73.86,1.6,1.72,3.2,2.61,4.78.49.87,1,1.73,1.49,2.6.92,1.61,1.84,3.23,2.8,4.84.47.8,1,1.6,1.46,2.4,1,1.65,2,3.31,3,5,.45.71.92,1.42,1.37,2.13,1.09,1.71,2.19,3.43,3.31,5.13.39.59.8,1.18,1.2,1.76,1.21,1.81,2.43,3.62,3.68,5.41.28.41.58.81.87,1.22,1.38,2,2.77,3.91,4.2,5.85l.18.23a350.55,350.55,0,0,0,27.91,33.32c2.07,2.16,4.14,4.31,6.26,6.43C188.24,674.6,188.33,490.05,302.2,376.19Z"/><path id="_3" data-name="3" class="cls-6" d="M491.45,249.45A290.43,290.43,0,0,1,651.07,297,291.38,291.38,0,0,1,681.46,305a29.21,29.21,0,0,0,29.22-7.16l42-42-.13-.09-.83-.59c-2-1.39-4-2.77-6-4.12-.48-.33-1-.65-1.46-1-1.79-1.2-3.58-2.39-5.39-3.55-.64-.42-1.29-.82-1.94-1.22-1.64-1-3.29-2.09-5-3.1-.8-.49-1.6-1-2.4-1.44-1.51-.91-3-1.8-4.53-2.68l-2.87-1.64-4.07-2.27-3.4-1.84-3.5-1.85c-1.33-.69-2.67-1.38-4-2.05l-2.8-1.39q-2.37-1.17-4.75-2.3L698,223.9A350.14,350.14,0,0,0,553.9,191.14l-2.1,0c-1.86,0-3.72,0-5.57,0l-2.5,0c-1.87,0-3.74.08-5.61.14l-2.1.08c-2,.08-4.09.17-6.14.28l-.68.05a350.51,350.51,0,0,0-95.35,19.06l-.48.16q-2.91,1-5.8,2.11l-2.05.77q-2.36.88-4.69,1.82l-3.25,1.3-3.67,1.52-4.42,1.9c-.86.38-1.72.75-2.57,1.14-1.94.86-3.87,1.75-5.79,2.65l-1.24.58a350.16,350.16,0,0,0-69.76,43.84l-.3.24q-2.91,2.35-5.76,4.76l-1.13,1q-2.43,2.07-4.82,4.17l-1.79,1.6c-1.36,1.22-2.72,2.45-4.06,3.69L310,286.12c-1.18,1.11-2.35,2.22-3.51,3.35L303.94,292c-1,1-2.08,2.06-3.11,3.11s-2.09,2.13-3.12,3.2-2,2.09-3,3.14-1.77,1.91-2.66,2.87c-1.11,1.22-2.23,2.43-3.33,3.66-.64.71-1.25,1.42-1.88,2.13-1.32,1.51-2.65,3-3.95,4.55-.21.24-.41.49-.62.74A351,351,0,0,0,237,383.76h0c-1.14,2.26-2.24,4.54-3.33,6.82-.17.36-.35.71-.52,1.07q-1.38,2.93-2.71,5.9c-.32.71-.65,1.42-1,2.14-.73,1.64-1.44,3.3-2.14,5-.45,1.07-.91,2.14-1.35,3.21-.55,1.33-1.08,2.67-1.62,4s-1.12,2.84-1.67,4.26c-.39,1-.77,2.05-1.15,3.07-.65,1.76-1.3,3.52-1.92,5.29-.26.72-.5,1.45-.76,2.17q-1.07,3.1-2.09,6.22l-.43,1.36q-1.12,3.51-2.18,7c-.06.23-.13.45-.19.68-.76,2.55-1.49,5.12-2.18,7.69,0,.05,0,.1,0,.14q-4.38,16.27-7.18,32.86l0,.09q-.67,4-1.26,8.07l-.09.65q-.54,3.75-1,7.52c-.05.48-.1,1-.16,1.44-.26,2.25-.51,4.51-.73,6.76-.08.83-.14,1.66-.22,2.48-.17,1.93-.34,3.85-.48,5.78-.09,1.26-.16,2.53-.24,3.79-.1,1.52-.2,3-.28,4.55q-.12,2.75-.21,5.49c0,1-.08,2.05-.11,3.08l0,1.74c-.05,2.22-.08,4.45-.08,6.67v.1C199.86,379.88,330.42,249.45,491.45,249.45Z"/><path id="_4" data-name="4" class="cls-7" d="M714.89,293.65l37.83-37.83a348.16,348.16,0,0,0-88.9-45.72l-.24-.08q-3.48-1.19-7-2.31l-.33-.1c-2.33-.74-4.68-1.46-7-2.16l-.16,0a349.33,349.33,0,0,0-51.53-11l-.18,0c-2.24-.31-4.49-.58-6.73-.85l-1.06-.12c-2.1-.24-4.19-.45-6.29-.65l-1.51-.15q-3-.27-6-.5l-1.72-.12c-2-.13-4-.26-5.94-.36l-1.79-.08q-3-.15-5.95-.24l-1.69,0q-3-.08-6.08-.11h-1.3q-14.22-.06-28.4,1l-.76.05c-1.85.14-3.69.32-5.54.49l-2.34.22c-1.67.17-3.34.36-5,.56l-2.89.34c-1.57.19-3.13.4-4.7.62-1.06.15-2.11.29-3.16.45-1.51.22-3,.45-4.52.7-1.11.17-2.22.36-3.33.55-1.46.25-2.92.5-4.38.77-1.16.21-2.31.43-3.47.66-1.41.27-2.83.55-4.24.84l-3.59.77c-1.38.3-2.75.6-4.12.92s-2.49.59-3.74.89-2.63.63-3.94,1-2.71.72-4.07,1.08c-1.19.32-2.39.63-3.58,1-1.95.54-3.88,1.11-5.82,1.69l-3.74,1.13c-1.85.58-3.7,1.15-5.54,1.76-1,.32-2,.67-3,1-1.55.53-3.09,1-4.63,1.59-1.05.37-2.09.76-3.13,1.14-1.48.54-3,1.08-4.44,1.64l-3.16,1.23c-1.46.57-2.91,1.14-4.36,1.73l-3.13,1.3c-1.46.61-2.91,1.22-4.36,1.85l-3.06,1.35c-1.48.66-2.94,1.32-4.41,2l-2.94,1.38q-2.26,1.06-4.52,2.18l-2.77,1.37c-1.59.8-3.17,1.62-4.74,2.44-.83.43-1.65.85-2.47,1.29-1.77.94-3.54,1.91-5.3,2.89l-1.84,1q-7.21,4.06-14.28,8.5L363,245c-2,1.28-4.06,2.58-6.07,3.91l-1.85,1.25c-1.67,1.12-3.34,2.25-5,3.41-.73.5-1.45,1-2.18,1.54q-2.31,1.62-4.59,3.29c-.78.57-1.54,1.14-2.31,1.72q-2.2,1.63-4.4,3.32l-2.33,1.81c-1.44,1.13-2.88,2.27-4.3,3.42l-2.29,1.87q-2.16,1.77-4.3,3.59L321.24,276c-1.48,1.28-2.94,2.57-4.4,3.87l-1.95,1.75c-1.59,1.43-3.16,2.89-4.72,4.36-.5.48-1,.94-1.52,1.42-2.06,2-4.12,4-6.15,6C416.48,179.69,601,179.79,714.89,293.65Z"/><path id="_5" data-name="5" class="cls-8" d="M743.71,264.84l9-9c-.53-.37-1.05-.76-1.59-1.13l-2.38-1.66c-1.47-1-3-2-4.45-3-.72-.49-1.45-1-2.18-1.45q-2.34-1.55-4.71-3l-2.12-1.34c-1.58-1-3.18-2-4.79-2.94-.73-.45-1.47-.89-2.21-1.33-1.56-.93-3.13-1.83-4.7-2.74-.81-.46-1.62-.93-2.43-1.38-1.47-.83-3-1.64-4.44-2.44-.94-.51-1.88-1-2.83-1.53q-1.92-1-3.87-2c-1.16-.6-2.32-1.21-3.49-1.79l-2.72-1.33a350.16,350.16,0,0,0-145.58-35.49A290.64,290.64,0,0,1,743.71,264.84Z"/><circle class="cls-3" cx="591.09" cy="699.27" r="116.73"/><circle class="cls-9" cx="549.82" cy="541.27" r="350.18"/><path class="cls-9" d="M384.74,788.88c-114-114-114-298.73,0-412.69C465,295.92,580.41,272.21,681.46,305a29.21,29.21,0,0,0,29.22-7.16l65.61-65.62a29.16,29.16,0,0,0-1.18-41.87C614.6,51.9,372,58.81,219.66,211.11c-159.55,159.55-159.55,418.23,0,577.77s417.91,159.55,577.48.29C683.15,902.84,498.6,902.75,384.74,788.88Z"/><path id="_0-2" data-name="0" class="cls-9" d="M384.74,788.88c-114-114-114-298.73,0-412.69C465,295.92,580.41,272.21,681.46,305a29.21,29.21,0,0,0,29.22-7.16l42-42.05C616,158.37,424.89,171,302.2,293.65c-136.76,136.76-136.76,358.48,0,495.23,134.53,134.54,351.3,136.72,488.51,6.55q3.22-3.09,6.43-6.26C683.15,902.84,498.6,902.75,384.74,788.88Z"/><path id="_1-2" data-name="1" class="cls-10" d="M293.25,303c-1,1-1.95,2.09-2.91,3.14-1.28,1.41-2.54,2.85-3.8,4.28-.59.68-1.19,1.35-1.78,2q-2.19,2.54-4.33,5.12l-1.05,1.26q-2.37,2.88-4.68,5.81l-.51.65q-2.49,3.17-4.91,6.39l-.12.16A350.1,350.1,0,0,0,242,374.24l-.14.25c-1.25,2.31-2.47,4.64-3.68,7-.15.3-.3.6-.46.9-1.08,2.11-2.13,4.24-3.17,6.38-.28.58-.55,1.15-.82,1.73q-1.33,2.79-2.63,5.61l-1.2,2.69q-1.05,2.36-2.07,4.72c-.53,1.24-1,2.48-1.56,3.73s-1,2.5-1.54,3.75c-.63,1.59-1.26,3.19-1.87,4.8-.36.91-.71,1.83-1,2.75q-1.08,2.91-2.12,5.83l-.63,1.8q-1.17,3.36-2.27,6.75c-.11.32-.21.65-.32,1-.8,2.5-1.58,5-2.32,7.53l-.09.28a351.15,351.15,0,0,0-10.77,49.24l0,.2q-.57,4-1.05,8c0,.27-.07.55-.1.83q-.44,3.69-.8,7.4c-.05.55-.09,1.1-.14,1.65q-.31,3.33-.56,6.67c-.07.89-.11,1.8-.17,2.7-.13,1.9-.25,3.8-.34,5.7-.07,1.42-.11,2.85-.16,4.27s-.12,2.84-.16,4.26q-.11,4.32-.11,8.67h0q0,4.31.11,8.59c0,1.57.11,3.14.17,4.7.05,1.25.08,2.51.14,3.76.1,2.14.24,4.27.38,6.41l.12,1.94c.19,2.52.4,5.05.64,7.57l.06.7a350.16,350.16,0,0,0,15.2,73.78l.18.55q1.13,3.48,2.33,7c.17.47.33.95.5,1.42q1,3,2.16,6c.29.8.59,1.59.89,2.38.62,1.63,1.26,3.25,1.9,4.87.46,1.13.9,2.27,1.37,3.4s1,2.49,1.56,3.73c.63,1.48,1.26,3,1.91,4.43.37.86.76,1.71,1.15,2.56.82,1.83,1.65,3.66,2.51,5.48.21.45.43.9.65,1.35q1.56,3.29,3.19,6.54l.05.1a350.48,350.48,0,0,0,44.85,68l1.08,1.29c1.25,1.47,2.52,2.92,3.79,4.36.67.78,1.35,1.55,2,2.32,1.08,1.22,2.18,2.42,3.28,3.62.9,1,1.8,2,2.72,2.92s2,2.1,3,3.14,2.08,2.15,3.13,3.22l2.95,2.95q1.53,1.51,3.09,3c1.06,1,2.12,2.05,3.19,3.06l2.77,2.56q1.85,1.71,3.72,3.39l2.1,1.86c1.5,1.32,3,2.64,4.53,3.93l1.07.9a350.31,350.31,0,0,0,89.36,54.9l1.94.83c1.37.57,2.75,1.11,4.13,1.66s2.63,1.07,4,1.58l2.13.8a350.22,350.22,0,0,0,86.29,20.64l.67.07c2.1.23,4.19.42,6.29.6l2.44.22c1.69.14,3.39.25,5.09.36,1.23.08,2.46.17,3.69.24l4.24.2c1.53.06,3,.13,4.58.17l2.7.07C384.24,887,258,758.05,258,599.63c0-129.46,84.31-239.21,201-277.39A292.69,292.69,0,0,1,681.46,305a29.21,29.21,0,0,0,29.22-7.16l42-42q-5.73-4.08-11.61-7.93l-.28-.19c-1.89-1.23-3.79-2.43-5.7-3.63l-.8-.5c-1.74-1.09-3.5-2.15-5.26-3.2-.47-.27-.92-.56-1.38-.83q-2.37-1.4-4.75-2.74l-2-1.16c-1.37-.77-2.75-1.52-4.13-2.27L714,231.87c-1.12-.6-2.26-1.18-3.38-1.76s-2.46-1.28-3.7-1.9L704.33,227q-2.33-1.16-4.67-2.27l-1.59-.74q-2.87-1.33-5.74-2.63l-.55-.24a350.44,350.44,0,0,0-138.7-30H552c-1.9,0-3.79,0-5.68,0l-2.66,0c-1.85,0-3.7.08-5.54.14l-2.2.08c-2,.08-4.08.17-6.11.29l-.38,0a351.21,351.21,0,0,0-88.57,16.71l-.19.06q-3.27,1.08-6.53,2.22l-1.32.46q-2.85,1-5.68,2.07l-2.32.88q-2.4.91-4.8,1.86l-3.65,1.49-3.51,1.45c-2.31,1-4.61,2-6.9,3l-.26.11a350.3,350.3,0,0,0-84.95,54.38l-.1.08c-2,1.7-3.9,3.43-5.82,5.17l-.51.45c-1.79,1.63-3.55,3.28-5.3,4.94l-.85.79c-2,1.91-4,3.85-5.95,5.81s-4.06,4.12-6.05,6.21C295.17,300.88,294.21,301.93,293.25,303Z"/><path id="_2-2" data-name="2" class="cls-11" d="M302.2,376.19a291.35,291.35,0,0,1,247.66-82.54A293.18,293.18,0,0,1,681.46,305a29.21,29.21,0,0,0,29.22-7.16l42-42.05h0c-2.13-1.51-4.26-3-6.42-4.46l-.07-.05a347,347,0,0,0-61.07-33.08l-.1,0c-2.32-1-4.64-1.91-7-2.83l-.15-.06a349.06,349.06,0,0,0-57.77-17.08l-.61-.13q-3.34-.68-6.71-1.28l-1-.18q-3.28-.59-6.59-1.11l-1-.16q-3.33-.53-6.67-1l-.72-.1a353.79,353.79,0,0,0-36.91-3h-.18c-2.14-.06-4.28-.09-6.42-.11l-1.51,0c-2,0-3.92,0-5.89,0l-2,0c-1.88,0-3.75.08-5.63.14l-2.25.09c-1.84.07-3.68.15-5.52.25l-2.3.14c-1.84.11-3.68.23-5.52.37l-2.18.19c-1.89.15-3.78.31-5.66.5l-1.64.18q-10,1.05-20.06,2.67l-1.08.17q-2.59.43-5.19.92l-2.69.49c-1.59.3-3.17.62-4.75.94l-3.11.64c-1.51.32-3,.66-4.53,1l-3.29.76c-1.47.35-2.93.7-4.39,1.07l-3.42.88c-1.42.37-2.85.75-4.27,1.14-1.17.32-2.34.66-3.5,1-1.39.4-2.79.8-4.18,1.22l-3.58,1.1-4.07,1.29c-1.25.4-2.5.84-3.76,1.26s-2.57.85-3.84,1.3q-3.65,1.27-7.25,2.64c-1.13.42-2.25.87-3.38,1.31-1.39.54-2.79,1.08-4.18,1.64-1.17.47-2.34,1-3.51,1.45-1.33.55-2.67,1.11-4,1.68-1.17.5-2.34,1-3.51,1.54s-2.64,1.17-3.95,1.78-2.31,1.07-3.47,1.62c-1.32.62-2.63,1.25-3.94,1.89-1.14.55-2.28,1.11-3.41,1.68-1.32.66-2.65,1.34-4,2l-3.3,1.72L381.63,234l-3.13,1.72c-1.45.81-2.88,1.65-4.32,2.48l-2.8,1.63c-1.8,1.06-3.58,2.15-5.36,3.25l-1.69,1c-2.32,1.45-4.62,2.94-6.91,4.45-.74.48-1.47,1-2.21,1.48q-2.35,1.57-4.69,3.18l-2.67,1.89q-2.09,1.47-4.15,3c-.93.68-1.86,1.38-2.79,2.08-1.32,1-2.64,2-3.94,3q-1.43,1.08-2.82,2.19c-1.29,1-2.57,2-3.85,3.05l-2.77,2.26q-1.92,1.59-3.83,3.21c-.89.75-1.79,1.51-2.68,2.28-1.3,1.13-2.6,2.28-3.9,3.43-.83.74-1.66,1.47-2.48,2.22-1.42,1.29-2.82,2.6-4.23,3.92l-2.05,1.91q-3.11,3-6.16,6l-.17.17q-3.09,3.1-6.09,6.25c-.7.74-1.38,1.5-2.08,2.24-1.33,1.43-2.68,2.85-4,4.3-.81.89-1.59,1.8-2.38,2.7-1.17,1.31-2.34,2.62-3.49,3.95-.83,1-1.64,2-2.46,2.93-1.07,1.28-2.15,2.55-3.2,3.84-.84,1-1.65,2.06-2.47,3.09-1,1.25-2,2.51-3,3.78-.82,1.06-1.61,2.13-2.42,3.2-.95,1.25-1.92,2.51-2.85,3.77-.8,1.09-1.58,2.2-2.37,3.3-.91,1.26-1.82,2.51-2.71,3.78s-1.54,2.25-2.31,3.38-1.72,2.52-2.56,3.79-1.5,2.3-2.24,3.46-1.65,2.52-2.45,3.8-1.44,2.34-2.16,3.52-1.56,2.55-2.32,3.83-1.39,2.38-2.08,3.57-1.49,2.57-2.21,3.86-1.33,2.43-2,3.64-1.41,2.58-2.1,3.88-1.28,2.46-1.91,3.7-1.34,2.58-2,3.89-1.22,2.49-1.82,3.74-1.27,2.61-1.88,3.92-1.16,2.53-1.73,3.79-1.19,2.63-1.77,3.95-1.1,2.55-1.64,3.83-1.12,2.64-1.66,4-1,2.59-1.55,3.89-1,2.64-1.56,4-1,2.62-1.46,3.94-1,2.65-1.44,4-.92,2.66-1.37,4-.91,2.66-1.34,4-.86,2.67-1.28,4-.84,2.67-1.24,4-.79,2.71-1.18,4.06-.77,2.67-1.14,4-.73,2.72-1.08,4.09-.7,2.68-1,4-.66,2.75-1,4.12-.63,2.68-.93,4-.6,2.77-.9,4.15-.56,2.68-.82,4-.54,2.8-.8,4.2-.5,2.68-.73,4-.48,2.81-.71,4.22-.43,2.67-.63,4-.41,2.83-.6,4.25-.36,2.67-.53,4-.35,2.86-.51,4.29-.29,2.66-.43,4-.28,2.88-.41,4.31-.23,2.66-.33,4-.22,2.89-.31,4.33-.17,2.65-.24,4-.14,2.9-.2,4.35-.11,2.64-.15,4-.08,2.91-.1,4.36,0,2.64-.05,4c0,1.47,0,2.93,0,4.39,0,1.31,0,2.62.05,3.93,0,1.47,0,2.94.1,4.41,0,1.3.08,2.61.14,3.91.06,1.47.12,2.95.2,4.42.07,1.3.15,2.59.23,3.88.1,1.49.2,3,.31,4.45.1,1.28.21,2.57.32,3.85.14,1.48.27,3,.42,4.46.13,1.27.27,2.55.41,3.82.17,1.49.34,3,.53,4.48.16,1.26.33,2.52.5,3.78.2,1.5.41,3,.63,4.49.19,1.25.39,2.5.59,3.75.24,1.5.48,3,.74,4.5.22,1.24.45,2.48.68,3.71.27,1.51.55,3,.85,4.51.24,1.23.5,2.45.76,3.67.31,1.51.63,3,1,4.52q.41,1.82.84,3.63c.35,1.51.7,3,1.08,4.53.3,1.19.61,2.38.92,3.57.39,1.52.79,3,1.2,4.55.32,1.17.66,2.34,1,3.51.44,1.52.87,3,1.33,4.56.34,1.15.71,2.31,1.07,3.46.47,1.52.94,3,1.44,4.57.37,1.13.76,2.26,1.14,3.39.52,1.53,1,3.06,1.57,4.58.39,1.11.81,2.22,1.21,3.33.56,1.53,1.12,3.07,1.7,4.59.41,1.09.85,2.17,1.27,3.25.61,1.54,1.21,3.08,1.83,4.62.44,1.06.89,2.11,1.34,3.17.65,1.54,1.29,3.09,2,4.63.46,1,.93,2,1.39,3.08.7,1.56,1.39,3.11,2.11,4.65.47,1,1,2,1.43,3,.75,1.56,1.5,3.12,2.27,4.68.48,1,1,1.91,1.46,2.86.8,1.58,1.6,3.16,2.43,4.73.49.92,1,1.82,1.48,2.73.86,1.6,1.72,3.2,2.61,4.78.49.87,1,1.73,1.49,2.6.92,1.61,1.84,3.23,2.8,4.84.47.8,1,1.6,1.46,2.4,1,1.65,2,3.31,3,5,.45.71.92,1.42,1.37,2.13,1.09,1.71,2.19,3.43,3.31,5.13.39.59.8,1.18,1.2,1.76,1.21,1.81,2.43,3.62,3.68,5.41.28.41.58.81.87,1.22,1.38,2,2.77,3.91,4.2,5.85l.18.23a350.55,350.55,0,0,0,27.91,33.32c2.07,2.16,4.14,4.31,6.26,6.43C188.24,674.6,188.33,490.05,302.2,376.19Z"/><path id="_3-2" data-name="3" class="cls-12" d="M491.45,249.45A290.43,290.43,0,0,1,651.07,297,291.38,291.38,0,0,1,681.46,305a29.21,29.21,0,0,0,29.22-7.16l42-42-.13-.09-.83-.59c-2-1.39-4-2.77-6-4.12-.48-.33-1-.65-1.46-1-1.79-1.2-3.58-2.39-5.39-3.55-.64-.42-1.29-.82-1.94-1.22-1.64-1-3.29-2.09-5-3.1-.8-.49-1.6-1-2.4-1.44-1.51-.91-3-1.8-4.53-2.68l-2.87-1.64-4.07-2.27-3.4-1.84-3.5-1.85c-1.33-.69-2.67-1.38-4-2.05l-2.8-1.39q-2.37-1.17-4.75-2.3L698,223.9A350.14,350.14,0,0,0,553.9,191.14l-2.1,0c-1.86,0-3.72,0-5.57,0l-2.5,0c-1.87,0-3.74.08-5.61.14l-2.1.08c-2,.08-4.09.17-6.14.28l-.68.05a350.51,350.51,0,0,0-95.35,19.06l-.48.16q-2.91,1-5.8,2.11l-2.05.77q-2.36.88-4.69,1.82l-3.25,1.3-3.67,1.52-4.42,1.9c-.86.38-1.72.75-2.57,1.14-1.94.86-3.87,1.75-5.79,2.65l-1.24.58a350.16,350.16,0,0,0-69.76,43.84l-.3.24q-2.91,2.35-5.76,4.76l-1.13,1q-2.43,2.07-4.82,4.17l-1.79,1.6c-1.36,1.22-2.72,2.45-4.06,3.69L310,286.12c-1.18,1.11-2.35,2.22-3.51,3.35L303.94,292c-1,1-2.08,2.06-3.11,3.11s-2.09,2.13-3.12,3.2-2,2.09-3,3.14-1.77,1.91-2.66,2.87c-1.11,1.22-2.23,2.43-3.33,3.66-.64.71-1.25,1.42-1.88,2.13-1.32,1.51-2.65,3-3.95,4.55-.21.24-.41.49-.62.74A351,351,0,0,0,237,383.76h0c-1.14,2.26-2.24,4.54-3.33,6.82-.17.36-.35.71-.52,1.07q-1.38,2.93-2.71,5.9c-.32.71-.65,1.42-1,2.14-.73,1.64-1.44,3.3-2.14,5-.45,1.07-.91,2.14-1.35,3.21-.55,1.33-1.08,2.67-1.62,4s-1.12,2.84-1.67,4.26c-.39,1-.77,2.05-1.15,3.07-.65,1.76-1.3,3.52-1.92,5.29-.26.72-.5,1.45-.76,2.17q-1.07,3.1-2.09,6.22l-.43,1.36q-1.12,3.51-2.18,7c-.06.23-.13.45-.19.68-.76,2.55-1.49,5.12-2.18,7.69,0,.05,0,.1,0,.14q-4.38,16.27-7.18,32.86l0,.09q-.67,4-1.26,8.07l-.09.65q-.54,3.75-1,7.52c-.05.48-.1,1-.16,1.44-.26,2.25-.51,4.51-.73,6.76-.08.83-.14,1.66-.22,2.48-.17,1.93-.34,3.85-.48,5.78-.09,1.26-.16,2.53-.24,3.79-.1,1.52-.2,3-.28,4.55q-.12,2.75-.21,5.49c0,1-.08,2.05-.11,3.08l0,1.74c-.05,2.22-.08,4.45-.08,6.67v.1C199.86,379.88,330.42,249.45,491.45,249.45Z"/><path id="_4-2" data-name="4" class="cls-13" d="M714.89,293.65l37.83-37.83a348.16,348.16,0,0,0-88.9-45.72l-.24-.08q-3.48-1.19-7-2.31l-.33-.1c-2.33-.74-4.68-1.46-7-2.16l-.16,0a349.33,349.33,0,0,0-51.53-11l-.18,0c-2.24-.31-4.49-.58-6.73-.85l-1.06-.12c-2.1-.24-4.19-.45-6.29-.65l-1.51-.15q-3-.27-6-.5l-1.72-.12c-2-.13-4-.26-5.94-.36l-1.79-.08q-3-.15-5.95-.24l-1.69,0q-3-.08-6.08-.11h-1.3q-14.22-.06-28.4,1l-.76.05c-1.85.14-3.69.32-5.54.49l-2.34.22c-1.67.17-3.34.36-5,.56l-2.89.34c-1.57.19-3.13.4-4.7.62-1.06.15-2.11.29-3.16.45-1.51.22-3,.45-4.52.7-1.11.17-2.22.36-3.33.55-1.46.25-2.92.5-4.38.77-1.16.21-2.31.43-3.47.66-1.41.27-2.83.55-4.24.84l-3.59.77c-1.38.3-2.75.6-4.12.92s-2.49.59-3.74.89-2.63.63-3.94,1-2.71.72-4.07,1.08c-1.19.32-2.39.63-3.58,1-1.95.54-3.88,1.11-5.82,1.69l-3.74,1.13c-1.85.58-3.7,1.15-5.54,1.76-1,.32-2,.67-3,1-1.55.53-3.09,1-4.63,1.59-1.05.37-2.09.76-3.13,1.14-1.48.54-3,1.08-4.44,1.64l-3.16,1.23c-1.46.57-2.91,1.14-4.36,1.73l-3.13,1.3c-1.46.61-2.91,1.22-4.36,1.85l-3.06,1.35c-1.48.66-2.94,1.32-4.41,2l-2.94,1.38q-2.26,1.06-4.52,2.18l-2.77,1.37c-1.59.8-3.17,1.62-4.74,2.44-.83.43-1.65.85-2.47,1.29-1.77.94-3.54,1.91-5.3,2.89l-1.84,1q-7.21,4.06-14.28,8.5L363,245c-2,1.28-4.06,2.58-6.07,3.91l-1.85,1.25c-1.67,1.12-3.34,2.25-5,3.41-.73.5-1.45,1-2.18,1.54q-2.31,1.62-4.59,3.29c-.78.57-1.54,1.14-2.31,1.72q-2.2,1.63-4.4,3.32l-2.33,1.81c-1.44,1.13-2.88,2.27-4.3,3.42l-2.29,1.87q-2.16,1.77-4.3,3.59L321.24,276c-1.48,1.28-2.94,2.57-4.4,3.87l-1.95,1.75c-1.59,1.43-3.16,2.89-4.72,4.36-.5.48-1,.94-1.52,1.42-2.06,2-4.12,4-6.15,6C416.48,179.69,601,179.79,714.89,293.65Z"/><path id="_5-2" data-name="5" class="cls-14" d="M743.71,264.84l9-9c-.53-.37-1.05-.76-1.59-1.13l-2.38-1.66c-1.47-1-3-2-4.45-3-.72-.49-1.45-1-2.18-1.45q-2.34-1.55-4.71-3l-2.12-1.34c-1.58-1-3.18-2-4.79-2.94-.73-.45-1.47-.89-2.21-1.33-1.56-.93-3.13-1.83-4.7-2.74-.81-.46-1.62-.93-2.43-1.38-1.47-.83-3-1.64-4.44-2.44-.94-.51-1.88-1-2.83-1.53q-1.92-1-3.87-2c-1.16-.6-2.32-1.21-3.49-1.79l-2.72-1.33a350.16,350.16,0,0,0-145.58-35.49A290.64,290.64,0,0,1,743.71,264.84Z"/><circle class="cls-10" cx="591.09" cy="699.27" r="116.73"/><circle class="cls-15" cx="549.82" cy="541.27" r="350.18"/><circle class="cls-16" cx="508.54" cy="500" r="408.54"/><circle class="cls-17" cx="591.08" cy="582.54" r="291.82"/><line class="cls-18" x1="100" y1="-220" x2="100" y2="1220"/><line class="cls-15" x1="199.64" y1="-220" x2="199.64" y2="1220"/><line class="cls-19" x1="299.26" y1="-220" x2="299.26" y2="1220"/><line class="cls-20" x1="882.59" y1="-202.59" x2="882.59" y2="1237.41"/><line class="cls-15" x1="900" y1="-220" x2="900" y2="1220"/><line class="cls-15" x1="-780" y1="91.46" x2="1780" y2="91.46"/><line class="cls-15" x1="-780" y1="191.08" x2="1780" y2="191.08"/><line class="cls-21" x1="-780" y1="290.72" x2="1780" y2="290.72"/><line class="cls-22" x1="-780" y1="874.36" x2="1780" y2="874.36"/><line class="cls-15" x1="-780" y1="891.45" x2="1780" y2="891.45"/><line class="cls-22" x1="-780" y1="908.54" x2="1780" y2="908.54"/><line class="cls-23" x1="1439.99" y1="-431.4" x2="-422.81" y2="1431.4"/><line class="cls-23" x1="-422.81" y1="-431.4" x2="1439.99" y2="1431.4"/><circle class="cls-15" cx="755.39" cy="211.89" r="29.18"/><circle class="cls-24" cx="690.18" cy="277.14" r="29.18"/></g></svg>